<?xml version="1.0" standalone="no"?>
<!DOCTYPE svg PUBLIC "-//W3C//DTD SVG 20010904//EN"
 "http://www.w3.org/TR/2001/REC-SVG-20010904/DTD/svg10.dtd">
<svg version="1.0" xmlns="http://www.w3.org/2000/svg"
 width="725.000000pt" height="725.000000pt" viewBox="0 0 725.000000 725.000000"
 preserveAspectRatio="xMidYMid meet">
<metadata>
Created by potrace 1.11, written by Peter Selinger 2001-2013
</metadata>
<g transform="translate(0.000000,725.000000) scale(0.100000,-0.100000)"
fill="#000000" stroke="none">
<path d="M3980 7214 c0 -8 -9 -14 -19 -14 -10 0 -21 -7 -25 -15 -3 -8 -12 -15
-21 -15 -8 0 -15 -4 -15 -10 0 -5 -7 -10 -15 -10 -8 0 -15 -4 -15 -10 0 -5 -7
-10 -15 -10 -9 0 -18 -6 -21 -13 -3 -8 -10 -14 -17 -14 -22 -1 -41 -8 -55 -21
-8 -7 -17 -10 -22 -7 -5 3 -10 0 -12 -5 -2 -6 -13 -12 -25 -13 -12 0 -20 -4
-18 -7 2 -3 -16 -12 -41 -19 -24 -7 -44 -18 -44 -25 0 -7 -4 -6 -9 3 -6 9 -11
10 -15 2 -4 -6 -16 -11 -27 -11 -10 0 -19 -4 -19 -9 0 -5 -11 -8 -25 -7 -14 2
-30 -3 -36 -10 -6 -8 -15 -11 -20 -8 -5 2 -21 -1 -36 -9 -15 -8 -34 -12 -42
-9 -8 3 -11 0 -7 -7 5 -7 1 -9 -8 -5 -9 4 -16 1 -16 -6 0 -10 -3 -10 -15 0
-12 10 -15 10 -15 0 0 -7 -8 -10 -20 -7 -11 3 -18 1 -14 -4 3 -5 -3 -9 -13 -9
-10 0 -29 -6 -44 -13 -14 -8 -33 -13 -42 -11 -9 1 -17 -2 -17 -7 0 -5 -3 -8
-7 -8 -16 3 -73 -14 -73 -21 0 -9 -39 -23 -57 -21 -7 1 -13 -3 -13 -9 0 -6 -4
-8 -10 -5 -5 3 -10 1 -10 -5 0 -6 -5 -8 -10 -5 -6 3 -13 -1 -16 -9 -3 -9 -10
-13 -15 -10 -5 3 -9 0 -9 -7 0 -7 -3 -10 -6 -6 -7 6 -22 -4 -62 -43 -14 -14
-22 -18 -18 -10 4 8 0 6 -8 -4 -9 -11 -16 -17 -16 -14 0 4 -14 -7 -30 -24 -17
-17 -29 -33 -26 -36 3 -2 -6 -13 -19 -24 -14 -11 -23 -24 -20 -29 4 -5 2 -9
-4 -9 -5 0 -13 -9 -16 -20 -4 -11 -10 -18 -14 -16 -4 3 -8 -5 -8 -16 -1 -12
-6 -24 -11 -27 -9 -6 -28 -56 -22 -56 2 0 -3 -11 -10 -25 -8 -14 -13 -29 -12
-33 1 -4 -4 -20 -11 -35 -7 -15 -13 -34 -12 -42 1 -8 -5 -32 -12 -52 -8 -26
-9 -38 -1 -38 7 0 7 -5 -1 -14 -10 -11 -8 -16 9 -21 11 -3 18 -11 15 -16 -4
-5 1 -9 9 -9 9 0 29 -13 44 -30 16 -16 32 -30 37 -30 4 0 27 -18 52 -40 25
-22 49 -37 54 -34 5 3 9 -1 9 -10 0 -8 5 -16 12 -18 8 -3 8 -12 -2 -35 -8 -18
-18 -29 -22 -27 -4 3 -8 -3 -8 -13 0 -10 -9 -25 -19 -33 -11 -7 -18 -17 -15
-22 3 -4 -2 -11 -10 -14 -9 -3 -14 -10 -11 -14 3 -4 -2 -13 -10 -20 -8 -7 -15
-19 -15 -26 0 -8 -4 -14 -10 -14 -5 0 -12 -11 -16 -25 -3 -14 -10 -22 -15 -19
-5 3 -9 -4 -9 -15 0 -12 -4 -21 -10 -21 -5 0 -10 -7 -10 -15 0 -8 -3 -15 -8
-15 -4 0 -18 -21 -32 -47 -14 -27 -32 -54 -40 -61 -13 -12 -13 -13 0 -7 9 4 7
0 -4 -9 -10 -8 -15 -20 -10 -27 5 -8 3 -10 -6 -4 -10 6 -12 4 -7 -8 4 -11 1
-17 -8 -17 -8 0 -14 -3 -13 -7 2 -12 -14 -46 -29 -61 -7 -8 -11 -18 -7 -23 3
-5 -2 -12 -10 -15 -9 -3 -14 -9 -12 -13 2 -3 -6 -29 -19 -56 -12 -28 -21 -53
-18 -58 2 -4 -2 -10 -11 -13 -8 -3 -12 -12 -9 -20 3 -8 0 -14 -5 -14 -6 0 -9
-9 -7 -20 2 -11 0 -20 -5 -20 -5 0 -7 -7 -4 -15 4 -8 1 -15 -5 -15 -6 0 -8 -7
-5 -15 4 -8 2 -15 -3 -15 -5 0 -10 -10 -10 -22 -2 -36 -11 -79 -26 -129 -8
-27 -11 -54 -6 -67 5 -12 4 -24 -1 -27 -19 -12 81 -276 120 -315 3 -3 17 -23
32 -45 39 -56 108 -139 108 -129 1 5 8 -3 16 -18 8 -16 19 -28 24 -28 6 0 10
-7 10 -15 0 -8 5 -15 12 -15 6 0 9 -3 5 -6 -3 -3 7 -17 24 -31 16 -14 27 -29
23 -34 -3 -5 2 -9 11 -9 9 0 14 -4 10 -9 -3 -5 4 -12 15 -16 11 -3 20 -11 20
-17 0 -6 19 -30 43 -53 58 -58 138 -153 137 -160 -1 -4 7 -13 17 -22 11 -9 12
-12 3 -8 -10 4 -9 2 2 -8 10 -8 19 -26 20 -41 1 -14 5 -26 9 -26 3 0 11 -12
18 -26 9 -20 9 -30 0 -40 -8 -10 -8 -14 0 -14 6 0 11 -9 11 -21 0 -11 -4 -18
-8 -15 -5 3 -9 -1 -9 -9 0 -8 3 -12 7 -10 4 2 7 -9 8 -26 0 -20 -3 -27 -11
-22 -9 5 -9 3 -1 -8 6 -8 10 -23 8 -34 -3 -11 -6 -31 -8 -45 -2 -14 -9 -36
-14 -50 -5 -14 -10 -28 -11 -32 0 -5 -1 -9 -2 -10 0 -2 -2 -10 -4 -19 -6 -35
-44 -107 -66 -129 -13 -13 -17 -19 -9 -15 8 4 -20 -26 -63 -68 -138 -136 -228
-178 -387 -183 -54 -1 -100 2 -107 8 -7 6 -22 8 -33 5 -11 -3 -20 -1 -20 4 0
5 -9 9 -20 9 -10 0 -45 10 -77 22 -32 12 -61 22 -65 23 -3 0 -10 4 -15 9 -5 5
-3 6 4 2 7 -4 13 -5 13 -2 0 3 -10 10 -21 17 -16 8 -20 8 -14 -1 6 -9 2 -9
-14 -1 -22 12 -30 27 -8 16 6 -3 1 2 -13 12 -38 28 -116 106 -123 123 -4 13
-6 12 -6 -1 -1 -9 6 -22 14 -29 8 -7 12 -17 8 -23 -3 -6 -1 -7 5 -3 6 4 30
-12 53 -35 40 -40 40 -41 9 -23 -18 11 -34 25 -37 31 -3 7 -9 11 -13 8 -5 -3
-19 9 -31 27 -13 18 -29 36 -35 41 -21 12 -57 68 -41 61 8 -3 19 -15 24 -26 9
-21 10 -21 17 -3 4 11 4 16 0 13 -3 -4 -16 4 -29 18 -14 15 -26 21 -29 15 -12
-19 -5 -280 7 -285 8 -3 8 -5 -1 -5 -9 -1 -10 -6 -3 -19 6 -11 10 -27 10 -38
1 -37 4 -54 11 -54 4 0 7 -6 8 -12 0 -7 3 -20 5 -28 3 -8 8 -30 12 -48 4 -18
12 -35 16 -38 5 -3 9 -16 9 -30 0 -13 5 -24 11 -24 5 0 7 -4 4 -10 -3 -6 -1
-10 5 -10 6 0 8 -5 5 -10 -3 -5 -2 -10 3 -10 6 0 17 -18 26 -40 9 -22 21 -40
27 -40 5 0 8 -4 4 -9 -3 -5 3 -16 14 -23 11 -8 21 -20 23 -28 9 -40 190 -169
226 -162 6 2 12 -2 12 -8 0 -5 13 -10 28 -10 15 0 33 -5 40 -12 8 -8 12 -8 12
-1 0 8 7 8 25 0 17 -8 23 -18 21 -32 -6 -34 -38 -105 -46 -105 -7 0 -73 -131
-76 -150 0 -3 -6 -18 -12 -33 -7 -16 -10 -32 -7 -37 3 -4 -1 -10 -8 -13 -7 -2
-13 -17 -15 -32 -1 -16 -6 -33 -10 -39 -4 -6 -7 -27 -7 -46 0 -19 -4 -38 -8
-41 -13 -9 -16 -59 -3 -59 6 0 5 -4 -2 -9 -8 -4 -13 -17 -12 -27 1 -11 1 -23
0 -29 -2 -11 0 -187 3 -275 1 -30 5 -57 8 -60 4 -3 8 -21 10 -40 2 -19 8 -41
13 -49 9 -12 8 -13 -4 -6 -12 7 -13 6 -3 -7 7 -8 10 -18 6 -21 -3 -4 -1 -7 7
-7 9 0 10 -3 1 -14 -9 -10 -9 -15 -1 -18 7 -2 12 -19 13 -38 1 -19 8 -41 14
-48 7 -7 13 -24 13 -38 0 -13 4 -24 10 -24 5 0 7 -7 4 -15 -4 -8 -1 -15 6 -15
6 0 8 -4 5 -10 -3 -5 0 -20 7 -32 7 -13 11 -26 10 -30 -1 -5 2 -8 8 -8 5 0 7
-7 4 -15 -4 -8 1 -17 9 -21 9 -3 14 -14 12 -25 -2 -10 1 -19 6 -19 6 0 7 -4 4
-10 -3 -5 -1 -10 5 -10 6 0 8 -4 5 -10 -3 -5 -1 -10 6 -10 7 0 9 -3 6 -7 -4
-3 1 -12 11 -19 14 -11 14 -13 2 -14 -13 -1 -13 -2 1 -13 16 -12 33 -46 31
-59 -1 -5 2 -8 7 -8 5 0 13 -10 17 -22 3 -12 15 -30 25 -41 10 -11 16 -24 13
-29 -3 -4 2 -8 11 -8 9 0 14 -4 11 -9 -3 -5 1 -14 9 -21 8 -7 12 -16 9 -21 -3
-5 0 -9 6 -9 6 0 14 -8 17 -17 4 -10 17 -28 29 -40 13 -12 31 -36 40 -53 10
-16 24 -30 31 -30 7 0 15 -11 19 -25 4 -14 8 -24 11 -22 6 7 53 -42 53 -54 0
-6 4 -7 10 -4 5 3 10 -1 10 -9 0 -9 5 -16 11 -16 5 0 7 6 3 13 -5 10 13 -9 56
-61 6 -7 15 -10 21 -7 5 4 9 2 9 -4 0 -11 85 -71 101 -71 5 0 9 -5 9 -11 0 -6
6 -9 14 -6 8 3 17 -1 20 -9 3 -8 12 -14 21 -14 8 0 15 -3 15 -7 0 -5 11 -13
25 -20 14 -6 23 -7 20 -3 -3 4 6 3 19 -3 13 -7 23 -14 21 -17 -2 -3 4 -6 13
-7 31 -2 52 -9 63 -20 6 -6 18 -9 25 -6 8 3 14 -1 14 -8 0 -11 3 -11 10 1 6
10 10 11 10 3 0 -7 7 -13 15 -13 8 0 15 -5 15 -11 0 -8 5 -8 15 1 10 9 15 9
15 1 0 -6 11 -11 25 -11 14 0 25 -4 25 -8 0 -4 8 -8 18 -9 47 -2 82 -8 82 -13
0 -3 19 -7 42 -9 23 -1 46 -7 50 -14 4 -7 8 -7 8 -2 0 6 11 10 25 10 14 0 25
-4 25 -8 0 -5 5 -5 10 -2 6 3 10 1 10 -6 0 -8 3 -9 13 0 8 6 16 8 20 5 7 -7
95 -10 101 -3 3 2 36 2 75 -1 39 -3 71 -3 71 0 0 3 21 6 48 6 26 1 70 5 97 9
28 4 64 7 82 8 17 1 29 5 27 9 -2 3 18 9 46 13 28 4 48 11 45 15 -3 4 3 6 14
3 10 -3 22 0 25 6 4 5 13 8 21 4 8 -3 15 0 15 7 0 7 7 10 15 6 8 -3 15 -1 15
5 0 6 5 7 10 4 6 -3 10 -1 10 5 0 6 5 8 10 5 6 -4 17 -2 24 5 8 6 24 13 37 15
12 3 25 8 28 13 7 10 43 26 54 24 4 -1 7 2 7 8 0 5 6 10 14 10 7 0 19 7 26 15
7 9 15 13 18 10 3 -2 13 5 23 16 10 12 23 18 28 14 6 -3 11 1 11 9 0 9 4 15 9
14 5 -2 24 11 44 29 19 17 37 29 40 27 3 -3 8 4 12 15 3 12 13 21 21 21 8 0
13 4 9 9 -3 5 4 12 15 16 11 4 18 10 15 15 -3 5 4 11 15 15 11 3 19 9 19 13
-3 20 2 32 11 27 6 -3 10 -2 10 3 0 5 11 22 25 38 14 16 25 35 25 42 0 6 4 12
9 12 5 0 14 14 20 30 5 17 17 33 25 36 8 3 12 12 9 20 -3 7 2 17 11 20 9 3 13
10 11 15 -3 5 1 20 10 33 9 14 14 30 10 36 -3 5 -1 10 4 10 6 0 11 9 11 20 0
11 4 20 9 20 6 0 8 9 6 20 -2 11 0 20 4 20 8 0 11 12 14 60 1 17 5 30 9 30 4
0 5 6 2 14 -3 8 0 17 6 21 8 5 8 11 -1 21 -9 11 -9 14 1 14 10 0 10 3 0 15
-10 12 -10 15 0 15 10 0 10 3 0 15 -10 12 -10 15 0 15 9 0 9 4 3 13 -6 6 -10
19 -11 27 -1 52 -21 130 -33 130 -5 0 -6 6 -3 14 3 7 -2 21 -11 29 -9 9 -16
19 -15 22 1 26 -2 35 -10 30 -5 -3 -11 -1 -11 4 -1 6 -2 16 -3 22 0 6 -8 16
-16 22 -8 7 -16 19 -18 27 -2 8 -8 17 -13 18 -13 5 -89 85 -89 95 0 4 -7 7
-15 7 -9 0 -28 11 -43 25 -15 14 -32 23 -38 21 -6 -2 -17 4 -24 14 -7 10 -19
16 -27 13 -7 -3 -13 0 -13 7 0 7 -8 10 -19 7 -11 -2 -28 3 -38 12 -10 9 -34
18 -53 19 -56 4 -60 5 -60 15 0 5 -6 5 -13 -2 -10 -8 -17 -7 -25 1 -9 9 -12 9
-12 -1 0 -11 -3 -11 -15 -1 -12 10 -15 10 -15 0 0 -10 -3 -10 -15 0 -12 10
-15 10 -15 0 0 -9 -3 -10 -13 -1 -10 8 -17 7 -25 -1 -9 -9 -12 -9 -12 2 0 11
-3 11 -12 2 -7 -7 -22 -12 -35 -12 -13 0 -23 -4 -23 -8 0 -4 -8 -8 -17 -9 -38
-3 -168 -75 -156 -86 3 -4 -1 -7 -10 -7 -9 0 -17 -4 -17 -10 0 -5 -7 -10 -15
-10 -9 0 -12 -6 -8 -17 4 -10 2 -14 -4 -10 -5 3 -16 -5 -23 -18 -7 -13 -17
-22 -22 -19 -5 3 -8 2 -7 -3 4 -13 -23 -63 -33 -63 -5 0 -6 -5 -3 -10 3 -6 1
-10 -5 -10 -7 0 -10 -6 -7 -14 3 -8 2 -16 -3 -18 -5 -2 -15 -25 -22 -53 -7
-27 -17 -53 -21 -56 -5 -4 -4 -9 1 -13 6 -4 9 -12 7 -19 -10 -25 -12 -76 -4
-71 5 3 9 -1 9 -8 0 -7 13 10 28 38 37 69 40 72 98 126 29 26 49 49 46 52 -3
3 4 6 16 6 12 0 22 5 22 11 0 5 5 7 10 4 6 -3 10 -1 10 6 0 7 3 10 6 6 4 -3
23 0 43 8 41 15 52 16 140 16 35 -1 76 -7 91 -14 14 -8 34 -13 43 -11 9 1 17
-1 17 -5 0 -3 16 -15 35 -25 19 -11 35 -24 35 -30 0 -6 13 -20 29 -30 16 -11
27 -26 24 -33 -3 -7 0 -13 7 -13 6 0 9 -4 5 -9 -3 -5 -1 -12 4 -15 7 -5 21
-54 26 -91 1 -9 -12 -82 -19 -110 -13 -50 -31 -95 -38 -95 -5 0 -7 -4 -4 -8 2
-4 -18 -34 -45 -66 -27 -32 -49 -54 -49 -50 0 4 -9 -3 -20 -16 -11 -13 -20
-27 -20 -32 0 -4 -6 -8 -14 -8 -8 0 -21 -8 -28 -17 -7 -10 -20 -19 -28 -21 -8
-2 -16 -8 -18 -13 -2 -5 -10 -9 -18 -9 -8 0 -14 -4 -14 -10 0 -5 -9 -10 -20
-10 -10 0 -24 -8 -29 -17 -6 -10 -11 -14 -11 -9 0 5 -7 3 -15 -4 -12 -10 -15
-10 -15 1 -1 11 -3 11 -13 -1 -7 -9 -39 -22 -72 -30 -33 -7 -64 -16 -69 -18
-14 -8 -61 -11 -176 -13 -112 -2 -176 6 -199 25 -11 8 -13 8 -8 -1 5 -9 -1 -9
-25 0 -18 7 -35 14 -38 17 -3 3 -27 17 -54 30 -27 14 -51 33 -54 43 -4 15 -7
16 -13 5 -6 -9 -9 -6 -10 12 0 14 -3 19 -6 13 -6 -16 -73 33 -73 54 0 8 -5 11
-10 8 -6 -3 -10 1 -10 10 0 9 -4 14 -8 11 -4 -2 -14 4 -21 16 -7 11 -8 17 -2
13 6 -3 11 -1 11 4 0 6 -10 11 -22 11 -19 0 -20 2 -8 10 13 8 12 10 -3 10 -10
0 -15 5 -12 10 3 6 2 10 -4 10 -6 0 -15 10 -22 21 -9 17 -8 20 3 14 7 -4 2 3
-12 15 -14 12 -19 19 -12 15 6 -3 12 -1 12 4 0 6 -4 11 -9 11 -10 0 -58 138
-67 195 -4 22 -8 56 -8 77 -1 20 -4 34 -8 32 -4 -2 -7 8 -7 23 -1 30 -7 78
-10 78 -7 0 -16 110 -11 128 2 4 4 12 5 17 1 6 3 11 5 13 1 1 4 16 6 32 4 25
9 49 19 88 2 4 3 16 4 27 0 12 8 20 19 21 10 0 12 3 5 6 -7 2 -13 9 -13 15 0
6 7 8 15 4 12 -4 13 -2 2 15 -10 16 -9 21 3 29 8 5 12 10 7 10 -4 0 5 19 20
42 14 24 26 48 26 55 0 7 3 10 7 8 4 -3 16 5 26 17 12 14 14 19 4 13 -16 -8
-15 -8 55 68 19 20 29 37 23 37 -7 0 2 11 20 23 17 13 28 27 24 32 -4 4 -1 6
7 3 7 -2 49 32 92 76 44 43 79 75 79 70 0 -5 4 -3 9 4 4 7 16 14 25 16 9 1 17
6 17 12 1 17 32 44 51 44 11 0 17 4 14 9 -3 5 1 12 10 15 10 4 13 2 9 -7 -4
-6 3 0 15 16 12 15 26 25 31 21 5 -3 9 2 9 11 0 9 5 13 10 10 6 -3 10 -2 10 3
0 6 15 19 34 30 26 15 37 17 46 9 8 -9 9 -7 4 7 -5 13 -4 17 4 12 7 -4 20 -2
29 4 17 11 17 11 1 6 -30 -9 -20 1 23 23 24 13 38 16 34 9 -4 -7 1 -4 10 7 9
11 23 19 31 17 8 -2 13 3 12 10 -2 7 5 13 14 13 9 0 20 4 25 9 4 5 3 6 -4 2
-7 -4 -13 -5 -13 -3 0 12 72 46 85 40 10 -3 15 -1 13 7 -2 6 14 23 36 37 21
13 35 19 31 11 -3 -7 0 -5 8 5 8 9 18 17 22 17 5 0 17 8 28 17 15 13 18 14 12
3 -4 -8 2 -5 14 8 12 12 28 19 34 16 7 -4 9 -3 4 1 -9 11 103 86 116 78 6 -3
7 -1 3 5 -4 7 -3 12 2 12 4 0 17 8 28 18 39 35 99 77 107 74 5 -1 6 1 4 5 -2
5 7 19 21 33 16 16 20 18 11 5 -13 -18 -13 -19 4 -6 9 7 17 18 17 24 0 6 20
30 45 54 25 23 45 48 45 55 0 7 12 24 26 37 25 24 107 183 107 208 0 7 5 13
10 13 5 0 7 9 4 20 -3 11 -2 20 2 20 4 0 8 6 9 13 0 6 3 35 6 62 3 28 5 56 6
63 0 7 5 10 12 6 7 -5 8 -3 2 7 -10 17 -12 67 -2 95 3 12 2 26 -5 33 -8 8 -8
11 2 11 11 0 11 3 1 15 -10 12 -10 15 1 15 9 0 10 3 4 8 -12 9 -17 27 -17 70
0 17 -3 32 -6 32 -4 0 -8 18 -9 40 0 23 -6 47 -12 54 -6 7 -8 15 -6 18 3 3 1
17 -5 32 -5 15 -12 41 -15 59 -4 17 -11 35 -18 39 -7 4 -8 8 -3 8 5 0 3 6 -3
13 -6 8 -8 17 -4 20 3 4 0 7 -7 7 -7 0 -10 3 -7 7 4 3 -1 15 -10 26 -10 11
-13 17 -6 14 6 -4 2 12 -10 35 -12 24 -25 45 -29 46 -5 2 -8 13 -8 23 0 11 -4
18 -8 15 -5 -3 -15 10 -22 29 -8 19 -17 35 -22 35 -4 0 -8 7 -8 15 0 8 -4 15
-9 15 -5 0 -14 14 -21 30 -7 17 -15 29 -17 26 -9 -9 -31 19 -26 31 3 7 1 13
-3 13 -5 0 -22 14 -39 30 -47 48 -78 77 -105 99 -14 11 -31 25 -37 31 -7 6
-13 7 -13 3 0 -4 -4 -3 -8 2 -14 20 -82 66 -90 61 -5 -3 -15 4 -22 15 -8 10
-20 19 -26 19 -6 0 -17 7 -24 15 -7 8 -16 12 -21 9 -5 -3 -9 -1 -9 5 0 5 -16
15 -36 21 -19 7 -33 15 -30 18 3 3 -4 12 -17 21 -12 9 -22 13 -22 11 0 -3 -12
6 -25 18 -14 13 -44 37 -67 53 -24 17 -43 34 -43 39 0 6 -6 10 -14 10 -8 0
-16 3 -18 8 -1 4 -31 33 -65 65 -34 31 -58 57 -55 57 4 1 -2 8 -13 18 -21 17
-84 108 -86 124 -1 4 -2 14 -3 21 -1 6 -8 11 -15 9 -7 -1 -10 2 -6 8 4 6 1 17
-5 25 -7 8 -9 15 -5 15 4 0 0 11 -9 25 -9 14 -17 43 -19 65 -1 22 -6 40 -10
40 -4 0 -3 9 3 20 8 15 8 20 -2 20 -9 0 -9 3 2 10 8 5 10 10 4 10 -14 0 -10
35 9 83 14 33 20 37 51 37 23 0 38 -6 45 -17 5 -10 12 -17 15 -15 16 7 34 0
59 -24 16 -14 31 -24 33 -21 3 3 17 -6 32 -19 15 -13 37 -33 50 -44 13 -11 27
-18 33 -15 5 4 12 0 15 -9 6 -17 95 -66 119 -66 9 0 18 -7 21 -15 5 -12 10
-13 20 -4 11 9 15 8 20 -4 3 -9 12 -13 21 -10 8 3 19 0 23 -7 7 -11 11 -11 23
-1 10 8 17 9 22 1 4 -7 12 -7 26 0 13 8 19 7 19 0 0 -6 5 -8 11 -5 6 4 40 9
77 12 36 2 72 9 79 15 9 8 13 7 13 -2 0 -10 3 -10 15 0 10 8 15 9 15 2 0 -8 9
-8 30 0 17 5 44 8 60 6 17 -3 30 -1 30 4 0 5 9 4 20 -2 11 -6 20 -8 20 -4 0 3
7 1 15 -6 12 -10 15 -10 15 1 0 11 2 11 10 -1 5 -8 10 -12 10 -7 0 4 13 1 29
-7 16 -9 32 -12 36 -8 3 4 5 0 3 -8 -1 -8 3 -14 10 -12 6 1 11 -4 10 -10 -2
-7 3 -12 10 -10 6 1 12 -3 12 -8 0 -6 9 -20 20 -32 11 -12 20 -28 20 -35 0 -8
5 -11 10 -8 6 3 10 -3 10 -15 0 -12 5 -18 10 -15 6 3 10 2 10 -3 0 -15 41 -53
51 -47 5 4 9 1 9 -5 0 -6 4 -9 9 -5 5 3 12 1 16 -5 8 -13 165 -13 165 0 0 6 3
9 8 9 18 -3 32 2 32 12 0 5 -5 7 -12 3 -7 -4 -8 -3 -4 4 4 7 14 12 22 12 8 0
12 5 9 10 -3 6 -1 10 4 10 6 0 10 3 9 8 -1 4 3 17 10 28 6 12 8 24 5 28 -3 3
-1 6 6 6 7 0 10 4 7 9 -4 5 -7 28 -8 50 -1 27 -6 41 -15 41 -7 0 -12 3 -11 8
5 15 -36 68 -75 98 -23 17 -64 36 -92 44 -27 7 -52 16 -55 19 -6 8 -64 34 -68
31 -2 -1 -10 7 -18 17 -7 10 -14 14 -14 10 0 -4 -6 -2 -14 5 -8 7 -12 16 -9
21 2 4 1 6 -4 5 -5 -2 -24 9 -42 25 -18 15 -30 27 -26 27 3 0 0 6 -7 14 -7 8
-16 12 -19 10 -3 -2 -11 8 -17 21 -7 14 -16 25 -22 25 -6 0 -8 5 -5 10 3 6 1
10 -5 10 -6 0 -8 5 -5 10 3 6 1 10 -5 10 -5 0 -20 20 -32 45 -12 25 -26 45
-30 45 -4 0 -8 6 -8 13 0 18 -24 67 -32 67 -5 0 -8 7 -8 15 0 8 -5 15 -11 15
-8 0 -8 5 1 15 9 10 9 15 1 15 -6 0 -11 7 -11 15 0 8 -4 15 -10 15 -5 0 -10
12 -10 26 0 14 -4 23 -10 19 -6 -3 -11 5 -11 19 -2 44 -5 51 -16 49 -6 -1 -10
3 -10 10 2 23 -24 97 -34 97 -6 0 -8 4 -5 9 6 9 -15 73 -27 82 -4 3 -9 17 -11
30 -2 13 -11 41 -20 61 -9 21 -16 40 -16 43 1 11 -33 70 -44 77 -7 5 -6 8 4 8
9 0 11 3 5 8 -22 16 -55 73 -49 84 4 7 3 8 -4 4 -11 -7 -17 7 -12 29 1 5 -2 7
-6 3 -9 -10 -33 22 -34 45 0 9 -6 16 -12 15 -7 -2 -12 5 -12 14 1 10 -2 16 -6
13 -4 -2 -20 14 -36 35 -16 22 -35 40 -41 40 -7 0 -13 4 -13 8 0 4 -13 16 -30
25 -16 10 -30 15 -30 12 0 -3 -10 3 -22 14 -11 11 -25 18 -30 15 -4 -3 -8 0
-8 6 0 6 -4 9 -9 5 -5 -3 -16 1 -24 9 -10 11 -17 12 -25 4 -8 -8 -13 -7 -18 5
-5 13 -10 14 -25 6 -13 -7 -19 -6 -19 1 0 6 -4 9 -9 5 -6 -3 -15 3 -20 14 -8
14 -8 21 2 24 9 4 9 6 -1 6 -10 1 -10 6 -2 21 6 11 12 38 14 60 2 22 6 43 9
47 10 9 9 113 -1 113 -4 0 -12 10 -17 22 -11 24 -45 34 -45 12z"/>
<path d="M1915 3340 c-3 -5 -1 -10 4 -10 6 0 11 5 11 10 0 6 -2 10 -4 10 -3 0
-8 -4 -11 -10z"/>
<path d="M3953 2368 c-13 -6 -23 -15 -23 -20 0 -7 31 8 59 29 10 7 -16 1 -36
-9z"/>
<path d="M3500 741 c0 -6 4 -13 10 -16 6 -3 7 1 4 9 -7 18 -14 21 -14 7z"/>
<path d="M3530 721 c0 -6 4 -13 10 -16 6 -3 7 1 4 9 -7 18 -14 21 -14 7z"/>
</g>
</svg>
